<mxfile host="app.diagrams.net" modified="2020-11-26T17:45:22.644Z" agent="5.0 (Windows NT 6.1; Win64; x64) AppleWebKit/537.36 (KHTML, like Gecko) Chrome/86.0.4240.198 Safari/537.36" etag="bfUVayqX_rRO3JpoX-LN" version="13.10.1" type="github">
  <diagram id="-RcmR5_zFe8NNX7GSMVh" name="Page-1">
    <mxGraphModel dx="868" dy="450" grid="1" gridSize="10" guides="1" tooltips="1" connect="1" arrows="1" fold="1" page="1" pageScale="1" pageWidth="827" pageHeight="1169" math="0" shadow="0">
      <root>
        <mxCell id="0" />
        <mxCell id="1" parent="0" />
        <mxCell id="Pe_4OaXlOV5l_LclM_bV-1" value="users" style="swimlane;fontStyle=0;childLayout=stackLayout;horizontal=1;startSize=26;horizontalStack=0;resizeParent=1;resizeParentMax=0;resizeLast=0;collapsible=1;marginBottom=0;align=center;fontSize=14;swimlaneFillColor=#ffffff;fillColor=#E6E6E6;" parent="1" vertex="1">
          <mxGeometry x="600" y="210" width="160" height="146" as="geometry" />
        </mxCell>
        <mxCell id="Pe_4OaXlOV5l_LclM_bV-2" value="id                                   INT" style="text;strokeColor=#d6b656;fillColor=#fff2cc;spacingLeft=4;spacingRight=4;overflow=hidden;rotatable=0;points=[[0,0.5],[1,0.5]];portConstraint=eastwest;fontSize=12;" parent="Pe_4OaXlOV5l_LclM_bV-1" vertex="1">
          <mxGeometry y="26" width="160" height="30" as="geometry" />
        </mxCell>
        <mxCell id="Pe_4OaXlOV5l_LclM_bV-3" value="login           VARCHAR(255)" style="text;strokeColor=#9673a6;fillColor=#e1d5e7;spacingLeft=4;spacingRight=4;overflow=hidden;rotatable=0;points=[[0,0.5],[1,0.5]];portConstraint=eastwest;fontSize=12;" parent="Pe_4OaXlOV5l_LclM_bV-1" vertex="1">
          <mxGeometry y="56" width="160" height="30" as="geometry" />
        </mxCell>
        <mxCell id="Pe_4OaXlOV5l_LclM_bV-4" value="password   VARCHAR(255)" style="text;strokeColor=none;fillColor=none;spacingLeft=4;spacingRight=4;overflow=hidden;rotatable=0;points=[[0,0.5],[1,0.5]];portConstraint=eastwest;fontSize=12;" parent="Pe_4OaXlOV5l_LclM_bV-1" vertex="1">
          <mxGeometry y="86" width="160" height="30" as="geometry" />
        </mxCell>
        <mxCell id="Pe_4OaXlOV5l_LclM_bV-5" value="deleted_at       TIMESTAMP" style="text;strokeColor=none;fillColor=none;spacingLeft=4;spacingRight=4;overflow=hidden;rotatable=0;points=[[0,0.5],[1,0.5]];portConstraint=eastwest;fontSize=12;" parent="Pe_4OaXlOV5l_LclM_bV-1" vertex="1">
          <mxGeometry y="116" width="160" height="30" as="geometry" />
        </mxCell>
        <mxCell id="Pe_4OaXlOV5l_LclM_bV-6" value="movies" style="swimlane;fontStyle=0;childLayout=stackLayout;horizontal=1;startSize=26;horizontalStack=0;resizeParent=1;resizeParentMax=0;resizeLast=0;collapsible=1;marginBottom=0;align=center;fontSize=14;swimlaneFillColor=#ffffff;fillColor=#E6E6E6;" parent="1" vertex="1">
          <mxGeometry x="820" y="553" width="160" height="296" as="geometry" />
        </mxCell>
        <mxCell id="Pe_4OaXlOV5l_LclM_bV-7" value="id                                   INT" style="text;strokeColor=#d6b656;fillColor=#fff2cc;spacingLeft=4;spacingRight=4;overflow=hidden;rotatable=0;points=[[0,0.5],[1,0.5]];portConstraint=eastwest;fontSize=12;" parent="Pe_4OaXlOV5l_LclM_bV-6" vertex="1">
          <mxGeometry y="26" width="160" height="30" as="geometry" />
        </mxCell>
        <mxCell id="Pe_4OaXlOV5l_LclM_bV-8" value="title             VARCHAR(255)" style="text;strokeColor=none;fillColor=none;spacingLeft=4;spacingRight=4;overflow=hidden;rotatable=0;points=[[0,0.5],[1,0.5]];portConstraint=eastwest;fontSize=12;" parent="Pe_4OaXlOV5l_LclM_bV-6" vertex="1">
          <mxGeometry y="56" width="160" height="30" as="geometry" />
        </mxCell>
        <mxCell id="Pe_4OaXlOV5l_LclM_bV-9" value="time                                INT" style="text;strokeColor=none;fillColor=none;spacingLeft=4;spacingRight=4;overflow=hidden;rotatable=0;points=[[0,0.5],[1,0.5]];portConstraint=eastwest;fontSize=12;" parent="Pe_4OaXlOV5l_LclM_bV-6" vertex="1">
          <mxGeometry y="86" width="160" height="30" as="geometry" />
        </mxCell>
        <mxCell id="Pe_4OaXlOV5l_LclM_bV-10" value="year                   DATEONLY" style="text;strokeColor=none;fillColor=none;spacingLeft=4;spacingRight=4;overflow=hidden;rotatable=0;points=[[0,0.5],[1,0.5]];portConstraint=eastwest;fontSize=12;" parent="Pe_4OaXlOV5l_LclM_bV-6" vertex="1">
          <mxGeometry y="116" width="160" height="30" as="geometry" />
        </mxCell>
        <mxCell id="Pe_4OaXlOV5l_LclM_bV-11" value="description                  TEXT" style="text;strokeColor=none;fillColor=none;spacingLeft=4;spacingRight=4;overflow=hidden;rotatable=0;points=[[0,0.5],[1,0.5]];portConstraint=eastwest;fontSize=12;" parent="Pe_4OaXlOV5l_LclM_bV-6" vertex="1">
          <mxGeometry y="146" width="160" height="30" as="geometry" />
        </mxCell>
        <mxCell id="Pe_4OaXlOV5l_LclM_bV-12" value="poster         VARCHAR(255)" style="text;strokeColor=none;fillColor=none;spacingLeft=4;spacingRight=4;overflow=hidden;rotatable=0;points=[[0,0.5],[1,0.5]];portConstraint=eastwest;fontSize=12;" parent="Pe_4OaXlOV5l_LclM_bV-6" vertex="1">
          <mxGeometry y="176" width="160" height="30" as="geometry" />
        </mxCell>
        <mxCell id="Pe_4OaXlOV5l_LclM_bV-67" value="start_show         DATEONLY" style="text;strokeColor=none;fillColor=none;spacingLeft=4;spacingRight=4;overflow=hidden;rotatable=0;points=[[0,0.5],[1,0.5]];portConstraint=eastwest;fontSize=12;" parent="Pe_4OaXlOV5l_LclM_bV-6" vertex="1">
          <mxGeometry y="206" width="160" height="30" as="geometry" />
        </mxCell>
        <mxCell id="Pe_4OaXlOV5l_LclM_bV-68" value="end_show         DATEONLY" style="text;strokeColor=none;fillColor=none;spacingLeft=4;spacingRight=4;overflow=hidden;rotatable=0;points=[[0,0.5],[1,0.5]];portConstraint=eastwest;fontSize=12;" parent="Pe_4OaXlOV5l_LclM_bV-6" vertex="1">
          <mxGeometry y="236" width="160" height="30" as="geometry" />
        </mxCell>
        <mxCell id="Pe_4OaXlOV5l_LclM_bV-13" value="deleted_at       TIMESTAMP" style="text;strokeColor=none;fillColor=none;spacingLeft=4;spacingRight=4;overflow=hidden;rotatable=0;points=[[0,0.5],[1,0.5]];portConstraint=eastwest;fontSize=12;" parent="Pe_4OaXlOV5l_LclM_bV-6" vertex="1">
          <mxGeometry y="266" width="160" height="30" as="geometry" />
        </mxCell>
        <mxCell id="Pe_4OaXlOV5l_LclM_bV-14" value="tags" style="swimlane;fontStyle=0;childLayout=stackLayout;horizontal=1;startSize=26;horizontalStack=0;resizeParent=1;resizeParentMax=0;resizeLast=0;collapsible=1;marginBottom=0;align=center;fontSize=14;swimlaneFillColor=#ffffff;fillColor=#E6E6E6;" parent="1" vertex="1">
          <mxGeometry x="1020" y="368" width="160" height="86" as="geometry" />
        </mxCell>
        <mxCell id="Pe_4OaXlOV5l_LclM_bV-15" value="id                                   INT" style="text;strokeColor=#d6b656;fillColor=#fff2cc;spacingLeft=4;spacingRight=4;overflow=hidden;rotatable=0;points=[[0,0.5],[1,0.5]];portConstraint=eastwest;fontSize=12;" parent="Pe_4OaXlOV5l_LclM_bV-14" vertex="1">
          <mxGeometry y="26" width="160" height="30" as="geometry" />
        </mxCell>
        <mxCell id="Pe_4OaXlOV5l_LclM_bV-16" value="name            VARCHAR(15)" style="text;strokeColor=#9673a6;fillColor=#e1d5e7;spacingLeft=4;spacingRight=4;overflow=hidden;rotatable=0;points=[[0,0.5],[1,0.5]];portConstraint=eastwest;fontSize=12;" parent="Pe_4OaXlOV5l_LclM_bV-14" vertex="1">
          <mxGeometry y="56" width="160" height="30" as="geometry" />
        </mxCell>
        <mxCell id="Pe_4OaXlOV5l_LclM_bV-17" value="movies_tags" style="swimlane;fontStyle=0;childLayout=stackLayout;horizontal=1;startSize=26;horizontalStack=0;resizeParent=1;resizeParentMax=0;resizeLast=0;collapsible=1;marginBottom=0;align=center;fontSize=14;swimlaneFillColor=#ffffff;fillColor=#E6E6E6;" parent="1" vertex="1">
          <mxGeometry x="1010" y="485" width="160" height="116" as="geometry" />
        </mxCell>
        <mxCell id="Pe_4OaXlOV5l_LclM_bV-18" value="id                                   INT" style="text;strokeColor=#d6b656;fillColor=#fff2cc;spacingLeft=4;spacingRight=4;overflow=hidden;rotatable=0;points=[[0,0.5],[1,0.5]];portConstraint=eastwest;fontSize=12;" parent="Pe_4OaXlOV5l_LclM_bV-17" vertex="1">
          <mxGeometry y="26" width="160" height="30" as="geometry" />
        </mxCell>
        <mxCell id="Pe_4OaXlOV5l_LclM_bV-19" value="tag_id                            INT" style="text;strokeColor=#9673a6;fillColor=#e1d5e7;spacingLeft=4;spacingRight=4;overflow=hidden;rotatable=0;points=[[0,0.5],[1,0.5]];portConstraint=eastwest;fontSize=12;" parent="Pe_4OaXlOV5l_LclM_bV-17" vertex="1">
          <mxGeometry y="56" width="160" height="30" as="geometry" />
        </mxCell>
        <mxCell id="Pe_4OaXlOV5l_LclM_bV-20" value="movie_id                       INT" style="text;strokeColor=#9673a6;fillColor=#e1d5e7;spacingLeft=4;spacingRight=4;overflow=hidden;rotatable=0;points=[[0,0.5],[1,0.5]];portConstraint=eastwest;fontSize=12;" parent="Pe_4OaXlOV5l_LclM_bV-17" vertex="1">
          <mxGeometry y="86" width="160" height="30" as="geometry" />
        </mxCell>
        <mxCell id="Pe_4OaXlOV5l_LclM_bV-21" value="tickets" style="swimlane;fontStyle=0;childLayout=stackLayout;horizontal=1;startSize=26;horizontalStack=0;resizeParent=1;resizeParentMax=0;resizeLast=0;collapsible=1;marginBottom=0;align=center;fontSize=14;swimlaneFillColor=#ffffff;fillColor=#E6E6E6;" parent="1" vertex="1">
          <mxGeometry x="440" y="550" width="160" height="236" as="geometry" />
        </mxCell>
        <mxCell id="Pe_4OaXlOV5l_LclM_bV-22" value="id                                    INT" style="text;strokeColor=#d6b656;fillColor=#fff2cc;spacingLeft=4;spacingRight=4;overflow=hidden;rotatable=0;points=[[0,0.5],[1,0.5]];portConstraint=eastwest;fontSize=12;" parent="Pe_4OaXlOV5l_LclM_bV-21" vertex="1">
          <mxGeometry y="26" width="160" height="30" as="geometry" />
        </mxCell>
        <mxCell id="Pe_4OaXlOV5l_LclM_bV-23" value="state_id                          INT" style="text;strokeColor=none;fillColor=none;spacingLeft=4;spacingRight=4;overflow=hidden;rotatable=0;points=[[0,0.5],[1,0.5]];portConstraint=eastwest;fontSize=12;align=left;" parent="Pe_4OaXlOV5l_LclM_bV-21" vertex="1">
          <mxGeometry y="56" width="160" height="30" as="geometry" />
        </mxCell>
        <mxCell id="Pe_4OaXlOV5l_LclM_bV-24" value="seat                                INT" style="text;spacingLeft=4;spacingRight=4;overflow=hidden;rotatable=0;points=[[0,0.5],[1,0.5]];portConstraint=eastwest;fontSize=12;align=left;fillColor=#e1d5e7;strokeColor=#9673a6;" parent="Pe_4OaXlOV5l_LclM_bV-21" vertex="1">
          <mxGeometry y="86" width="160" height="30" as="geometry" />
        </mxCell>
        <mxCell id="Pe_4OaXlOV5l_LclM_bV-25" value="row                                 INT" style="text;strokeColor=#9673a6;fillColor=#e1d5e7;spacingLeft=4;spacingRight=4;overflow=hidden;rotatable=0;points=[[0,0.5],[1,0.5]];portConstraint=eastwest;fontSize=12;" parent="Pe_4OaXlOV5l_LclM_bV-21" vertex="1">
          <mxGeometry y="116" width="160" height="30" as="geometry" />
        </mxCell>
        <mxCell id="Pe_4OaXlOV5l_LclM_bV-26" value="session_id                      INT" style="text;strokeColor=#9673a6;fillColor=#e1d5e7;spacingLeft=4;spacingRight=4;overflow=hidden;rotatable=0;points=[[0,0.5],[1,0.5]];portConstraint=eastwest;fontSize=12;align=left;" parent="Pe_4OaXlOV5l_LclM_bV-21" vertex="1">
          <mxGeometry y="146" width="160" height="30" as="geometry" />
        </mxCell>
        <mxCell id="Pe_4OaXlOV5l_LclM_bV-27" value="price              DECIMAL(6,2)" style="text;strokeColor=none;fillColor=none;spacingLeft=4;spacingRight=4;overflow=hidden;rotatable=0;points=[[0,0.5],[1,0.5]];portConstraint=eastwest;fontSize=12;align=left;" parent="Pe_4OaXlOV5l_LclM_bV-21" vertex="1">
          <mxGeometry y="176" width="160" height="30" as="geometry" />
        </mxCell>
        <mxCell id="Pe_4OaXlOV5l_LclM_bV-28" value="deleted_at       TIMESTAMP" style="text;strokeColor=none;fillColor=none;spacingLeft=4;spacingRight=4;overflow=hidden;rotatable=0;points=[[0,0.5],[1,0.5]];portConstraint=eastwest;fontSize=12;" parent="Pe_4OaXlOV5l_LclM_bV-21" vertex="1">
          <mxGeometry y="206" width="160" height="30" as="geometry" />
        </mxCell>
        <mxCell id="Pe_4OaXlOV5l_LclM_bV-29" value="" style="edgeStyle=orthogonalEdgeStyle;fontSize=12;html=1;endArrow=ERoneToMany;entryX=0;entryY=0.5;entryDx=0;entryDy=0;exitX=1;exitY=0.5;exitDx=0;exitDy=0;" parent="1" source="Pe_4OaXlOV5l_LclM_bV-7" target="Pe_4OaXlOV5l_LclM_bV-20" edge="1">
          <mxGeometry width="100" height="100" relative="1" as="geometry">
            <mxPoint x="1060" y="758" as="sourcePoint" />
            <mxPoint x="1060" y="704" as="targetPoint" />
          </mxGeometry>
        </mxCell>
        <mxCell id="Pe_4OaXlOV5l_LclM_bV-30" value="" style="edgeStyle=orthogonalEdgeStyle;fontSize=12;html=1;endArrow=ERoneToMany;entryX=0;entryY=0.5;entryDx=0;entryDy=0;exitX=0;exitY=0.5;exitDx=0;exitDy=0;" parent="1" source="Pe_4OaXlOV5l_LclM_bV-15" target="Pe_4OaXlOV5l_LclM_bV-19" edge="1">
          <mxGeometry width="100" height="100" relative="1" as="geometry">
            <mxPoint x="1050" y="508" as="sourcePoint" />
            <mxPoint x="1060" y="547" as="targetPoint" />
          </mxGeometry>
        </mxCell>
        <mxCell id="Pe_4OaXlOV5l_LclM_bV-31" value="" style="edgeStyle=orthogonalEdgeStyle;fontSize=12;html=1;endArrow=ERoneToMany;entryX=1;entryY=0.5;entryDx=0;entryDy=0;exitX=0;exitY=0.5;exitDx=0;exitDy=0;" parent="1" source="Pe_4OaXlOV5l_LclM_bV-7" target="Pe_4OaXlOV5l_LclM_bV-58" edge="1">
          <mxGeometry width="100" height="100" relative="1" as="geometry">
            <mxPoint x="810" y="758" as="sourcePoint" />
            <mxPoint x="770" y="880" as="targetPoint" />
          </mxGeometry>
        </mxCell>
        <mxCell id="Pe_4OaXlOV5l_LclM_bV-32" style="edgeStyle=orthogonalEdgeStyle;rounded=1;orthogonalLoop=1;jettySize=auto;html=1;exitX=0;exitY=0.5;exitDx=0;exitDy=0;entryX=1;entryY=0.5;entryDx=0;entryDy=0;endArrow=ERoneToMany;endFill=0;" parent="1" source="Pe_4OaXlOV5l_LclM_bV-2" target="Pe_4OaXlOV5l_LclM_bV-48" edge="1">
          <mxGeometry relative="1" as="geometry">
            <mxPoint x="496" y="186" as="sourcePoint" />
          </mxGeometry>
        </mxCell>
        <mxCell id="Pe_4OaXlOV5l_LclM_bV-33" style="edgeStyle=orthogonalEdgeStyle;rounded=1;orthogonalLoop=1;jettySize=auto;html=1;exitX=0;exitY=0.5;exitDx=0;exitDy=0;entryX=0;entryY=0.5;entryDx=0;entryDy=0;endArrow=ERoneToMany;endFill=0;" parent="1" source="Pe_4OaXlOV5l_LclM_bV-44" target="Pe_4OaXlOV5l_LclM_bV-49" edge="1">
          <mxGeometry relative="1" as="geometry" />
        </mxCell>
        <mxCell id="Pe_4OaXlOV5l_LclM_bV-34" style="edgeStyle=orthogonalEdgeStyle;rounded=1;orthogonalLoop=1;jettySize=auto;html=1;exitX=0;exitY=0.5;exitDx=0;exitDy=0;entryX=1;entryY=0.5;entryDx=0;entryDy=0;endArrow=ERoneToMany;endFill=0;jumpStyle=none;" parent="1" source="Pe_4OaXlOV5l_LclM_bV-44" target="Pe_4OaXlOV5l_LclM_bV-41" edge="1">
          <mxGeometry relative="1" as="geometry" />
        </mxCell>
        <mxCell id="Pe_4OaXlOV5l_LclM_bV-35" style="edgeStyle=orthogonalEdgeStyle;rounded=1;orthogonalLoop=1;jettySize=auto;html=1;exitX=0;exitY=0.5;exitDx=0;exitDy=0;entryX=0;entryY=0.5;entryDx=0;entryDy=0;endArrow=ERoneToMany;endFill=0;" parent="1" source="Pe_4OaXlOV5l_LclM_bV-37" target="Pe_4OaXlOV5l_LclM_bV-42" edge="1">
          <mxGeometry relative="1" as="geometry" />
        </mxCell>
        <mxCell id="Pe_4OaXlOV5l_LclM_bV-36" value="endpoints" style="swimlane;fontStyle=0;childLayout=stackLayout;horizontal=1;startSize=26;fillColor=#e0e0e0;horizontalStack=0;resizeParent=1;resizeParentMax=0;resizeLast=0;collapsible=1;marginBottom=0;swimlaneFillColor=#ffffff;align=center;fontSize=14;" parent="1" vertex="1">
          <mxGeometry x="150" y="427" width="160" height="78" as="geometry" />
        </mxCell>
        <mxCell id="Pe_4OaXlOV5l_LclM_bV-37" value="id                                    INT" style="text;strokeColor=#d6b656;fillColor=#fff2cc;spacingLeft=4;spacingRight=4;overflow=hidden;rotatable=0;points=[[0,0.5],[1,0.5]];portConstraint=eastwest;fontSize=12;" parent="Pe_4OaXlOV5l_LclM_bV-36" vertex="1">
          <mxGeometry y="26" width="160" height="26" as="geometry" />
        </mxCell>
        <mxCell id="Pe_4OaXlOV5l_LclM_bV-38" value="url             VARCHAR(2048)" style="text;strokeColor=#9673a6;fillColor=#e1d5e7;spacingLeft=4;spacingRight=4;overflow=hidden;rotatable=0;points=[[0,0.5],[1,0.5]];portConstraint=eastwest;fontSize=12;gradientDirection=west;" parent="Pe_4OaXlOV5l_LclM_bV-36" vertex="1">
          <mxGeometry y="52" width="160" height="26" as="geometry" />
        </mxCell>
        <mxCell id="Pe_4OaXlOV5l_LclM_bV-39" value="roles_endpoints" style="swimlane;fontStyle=0;childLayout=stackLayout;horizontal=1;startSize=26;fillColor=#e0e0e0;horizontalStack=0;resizeParent=1;resizeParentMax=0;resizeLast=0;collapsible=1;marginBottom=0;swimlaneFillColor=#ffffff;align=center;fontSize=14;" parent="1" vertex="1">
          <mxGeometry x="150" y="300" width="160" height="104" as="geometry" />
        </mxCell>
        <mxCell id="Pe_4OaXlOV5l_LclM_bV-40" value="id                                   INT" style="text;strokeColor=#d6b656;fillColor=#fff2cc;spacingLeft=4;spacingRight=4;overflow=hidden;rotatable=0;points=[[0,0.5],[1,0.5]];portConstraint=eastwest;fontSize=12;" parent="Pe_4OaXlOV5l_LclM_bV-39" vertex="1">
          <mxGeometry y="26" width="160" height="26" as="geometry" />
        </mxCell>
        <mxCell id="Pe_4OaXlOV5l_LclM_bV-41" value="role_id                           INT" style="text;strokeColor=#9673a6;fillColor=#e1d5e7;spacingLeft=4;spacingRight=4;overflow=hidden;rotatable=0;points=[[0,0.5],[1,0.5]];portConstraint=eastwest;fontSize=12;gradientDirection=west;strokeWidth=2;" parent="Pe_4OaXlOV5l_LclM_bV-39" vertex="1">
          <mxGeometry y="52" width="160" height="26" as="geometry" />
        </mxCell>
        <mxCell id="Pe_4OaXlOV5l_LclM_bV-42" value="endpoint_id                   INT" style="text;strokeColor=#9673a6;fillColor=#e1d5e7;spacingLeft=4;spacingRight=4;overflow=hidden;rotatable=0;points=[[0,0.5],[1,0.5]];portConstraint=eastwest;fontSize=12;gradientDirection=west;strokeWidth=2;" parent="Pe_4OaXlOV5l_LclM_bV-39" vertex="1">
          <mxGeometry y="78" width="160" height="26" as="geometry" />
        </mxCell>
        <mxCell id="Pe_4OaXlOV5l_LclM_bV-43" value="roles" style="swimlane;fontStyle=0;childLayout=stackLayout;horizontal=1;startSize=26;fillColor=#e0e0e0;horizontalStack=0;resizeParent=1;resizeParentMax=0;resizeLast=0;collapsible=1;marginBottom=0;swimlaneFillColor=#ffffff;align=center;fontSize=14;" parent="1" vertex="1">
          <mxGeometry x="380" y="454" width="160" height="78" as="geometry" />
        </mxCell>
        <mxCell id="Pe_4OaXlOV5l_LclM_bV-44" value="id                                    INT" style="text;strokeColor=#d6b656;fillColor=#fff2cc;spacingLeft=4;spacingRight=4;overflow=hidden;rotatable=0;points=[[0,0.5],[1,0.5]];portConstraint=eastwest;fontSize=12;" parent="Pe_4OaXlOV5l_LclM_bV-43" vertex="1">
          <mxGeometry y="26" width="160" height="26" as="geometry" />
        </mxCell>
        <mxCell id="Pe_4OaXlOV5l_LclM_bV-45" value="name            VARCHAR(25)" style="text;strokeColor=#9673a6;fillColor=#e1d5e7;spacingLeft=4;spacingRight=4;overflow=hidden;rotatable=0;points=[[0,0.5],[1,0.5]];portConstraint=eastwest;fontSize=12;" parent="Pe_4OaXlOV5l_LclM_bV-43" vertex="1">
          <mxGeometry y="52" width="160" height="26" as="geometry" />
        </mxCell>
        <mxCell id="Pe_4OaXlOV5l_LclM_bV-46" value="users_roles" style="swimlane;fontStyle=0;childLayout=stackLayout;horizontal=1;startSize=26;fillColor=#e0e0e0;horizontalStack=0;resizeParent=1;resizeParentMax=0;resizeLast=0;collapsible=1;marginBottom=0;swimlaneFillColor=#ffffff;align=center;fontSize=14;" parent="1" vertex="1">
          <mxGeometry x="390" y="326" width="160" height="104" as="geometry" />
        </mxCell>
        <mxCell id="Pe_4OaXlOV5l_LclM_bV-47" value="id                                    INT" style="text;strokeColor=#d6b656;fillColor=#fff2cc;spacingLeft=4;spacingRight=4;overflow=hidden;rotatable=0;points=[[0,0.5],[1,0.5]];portConstraint=eastwest;fontSize=12;" parent="Pe_4OaXlOV5l_LclM_bV-46" vertex="1">
          <mxGeometry y="26" width="160" height="26" as="geometry" />
        </mxCell>
        <mxCell id="Pe_4OaXlOV5l_LclM_bV-48" value="user_id                           INT" style="text;strokeColor=#9673a6;fillColor=#e1d5e7;spacingLeft=4;spacingRight=4;overflow=hidden;rotatable=0;points=[[0,0.5],[1,0.5]];portConstraint=eastwest;fontSize=12;strokeWidth=2;gradientDirection=west;" parent="Pe_4OaXlOV5l_LclM_bV-46" vertex="1">
          <mxGeometry y="52" width="160" height="26" as="geometry" />
        </mxCell>
        <mxCell id="Pe_4OaXlOV5l_LclM_bV-49" value="role_id                            INT" style="text;strokeColor=#9673a6;fillColor=#e1d5e7;spacingLeft=4;spacingRight=4;overflow=hidden;rotatable=0;points=[[0,0.5],[1,0.5]];portConstraint=eastwest;fontSize=12;strokeWidth=2;gradientDirection=west;" parent="Pe_4OaXlOV5l_LclM_bV-46" vertex="1">
          <mxGeometry y="78" width="160" height="26" as="geometry" />
        </mxCell>
        <mxCell id="Pe_4OaXlOV5l_LclM_bV-50" value="users_tickets" style="swimlane;fontStyle=0;childLayout=stackLayout;horizontal=1;startSize=26;horizontalStack=0;resizeParent=1;resizeParentMax=0;resizeLast=0;collapsible=1;marginBottom=0;align=center;fontSize=14;swimlaneFillColor=#ffffff;fillColor=#E6E6E6;" parent="1" vertex="1">
          <mxGeometry x="610" y="389" width="160" height="116" as="geometry" />
        </mxCell>
        <mxCell id="Pe_4OaXlOV5l_LclM_bV-51" value="id                                    INT" style="text;strokeColor=#d6b656;fillColor=#fff2cc;spacingLeft=4;spacingRight=4;overflow=hidden;rotatable=0;points=[[0,0.5],[1,0.5]];portConstraint=eastwest;fontSize=12;" parent="Pe_4OaXlOV5l_LclM_bV-50" vertex="1">
          <mxGeometry y="26" width="160" height="30" as="geometry" />
        </mxCell>
        <mxCell id="Pe_4OaXlOV5l_LclM_bV-52" value="user_id                          INT" style="text;spacingLeft=4;spacingRight=4;overflow=hidden;rotatable=0;points=[[0,0.5],[1,0.5]];portConstraint=eastwest;fontSize=12;fillColor=#e1d5e7;strokeColor=#9673a6;" parent="Pe_4OaXlOV5l_LclM_bV-50" vertex="1">
          <mxGeometry y="56" width="160" height="30" as="geometry" />
        </mxCell>
        <mxCell id="Pe_4OaXlOV5l_LclM_bV-53" value="ticket_id                         INT" style="text;strokeColor=#9673a6;fillColor=#e1d5e7;spacingLeft=4;spacingRight=4;overflow=hidden;rotatable=0;points=[[0,0.5],[1,0.5]];portConstraint=eastwest;fontSize=12;" parent="Pe_4OaXlOV5l_LclM_bV-50" vertex="1">
          <mxGeometry y="86" width="160" height="30" as="geometry" />
        </mxCell>
        <mxCell id="Pe_4OaXlOV5l_LclM_bV-54" value="" style="edgeStyle=orthogonalEdgeStyle;fontSize=12;html=1;endArrow=ERoneToMany;entryX=1;entryY=0.5;entryDx=0;entryDy=0;exitX=1;exitY=0.5;exitDx=0;exitDy=0;" parent="1" source="Pe_4OaXlOV5l_LclM_bV-2" target="Pe_4OaXlOV5l_LclM_bV-52" edge="1">
          <mxGeometry width="100" height="100" relative="1" as="geometry">
            <mxPoint x="810" y="467" as="sourcePoint" />
            <mxPoint x="910" y="367" as="targetPoint" />
          </mxGeometry>
        </mxCell>
        <mxCell id="Pe_4OaXlOV5l_LclM_bV-55" value="" style="edgeStyle=orthogonalEdgeStyle;fontSize=12;html=1;endArrow=ERmandOne;startArrow=ERmandOne;exitX=1;exitY=0.5;exitDx=0;exitDy=0;entryX=0;entryY=0.5;entryDx=0;entryDy=0;" parent="1" source="Pe_4OaXlOV5l_LclM_bV-22" target="Pe_4OaXlOV5l_LclM_bV-53" edge="1">
          <mxGeometry width="100" height="100" relative="1" as="geometry">
            <mxPoint x="550" y="597" as="sourcePoint" />
            <mxPoint x="590" y="607" as="targetPoint" />
          </mxGeometry>
        </mxCell>
        <mxCell id="Pe_4OaXlOV5l_LclM_bV-56" value="sessions" style="swimlane;fontStyle=0;childLayout=stackLayout;horizontal=1;startSize=26;horizontalStack=0;resizeParent=1;resizeParentMax=0;resizeLast=0;collapsible=1;marginBottom=0;align=center;fontSize=14;swimlaneFillColor=#ffffff;fillColor=#E6E6E6;" parent="1" vertex="1">
          <mxGeometry x="640" y="640" width="160" height="146" as="geometry" />
        </mxCell>
        <mxCell id="Pe_4OaXlOV5l_LclM_bV-57" value="id                                   INT" style="text;strokeColor=#d6b656;fillColor=#fff2cc;spacingLeft=4;spacingRight=4;overflow=hidden;rotatable=0;points=[[0,0.5],[1,0.5]];portConstraint=eastwest;fontSize=12;" parent="Pe_4OaXlOV5l_LclM_bV-56" vertex="1">
          <mxGeometry y="26" width="160" height="30" as="geometry" />
        </mxCell>
        <mxCell id="Pe_4OaXlOV5l_LclM_bV-58" value="movie_id                       INT" style="text;strokeColor=none;fillColor=none;spacingLeft=4;spacingRight=4;overflow=hidden;rotatable=0;points=[[0,0.5],[1,0.5]];portConstraint=eastwest;fontSize=12;" parent="Pe_4OaXlOV5l_LclM_bV-56" vertex="1">
          <mxGeometry y="56" width="160" height="30" as="geometry" />
        </mxCell>
        <mxCell id="Pe_4OaXlOV5l_LclM_bV-59" value="date                 TIMESTAMP" style="text;strokeColor=none;fillColor=none;spacingLeft=4;spacingRight=4;overflow=hidden;rotatable=0;points=[[0,0.5],[1,0.5]];portConstraint=eastwest;fontSize=12;" parent="Pe_4OaXlOV5l_LclM_bV-56" vertex="1">
          <mxGeometry y="86" width="160" height="30" as="geometry" />
        </mxCell>
        <mxCell id="Pe_4OaXlOV5l_LclM_bV-60" value="deleted_at       TIMESTAMP" style="text;strokeColor=none;fillColor=none;spacingLeft=4;spacingRight=4;overflow=hidden;rotatable=0;points=[[0,0.5],[1,0.5]];portConstraint=eastwest;fontSize=12;" parent="Pe_4OaXlOV5l_LclM_bV-56" vertex="1">
          <mxGeometry y="116" width="160" height="30" as="geometry" />
        </mxCell>
        <mxCell id="Pe_4OaXlOV5l_LclM_bV-61" value="" style="edgeStyle=orthogonalEdgeStyle;fontSize=12;html=1;endArrow=ERoneToMany;exitX=0;exitY=0.5;exitDx=0;exitDy=0;entryX=1;entryY=0.5;entryDx=0;entryDy=0;" parent="1" source="Pe_4OaXlOV5l_LclM_bV-57" target="Pe_4OaXlOV5l_LclM_bV-26" edge="1">
          <mxGeometry width="100" height="100" relative="1" as="geometry">
            <mxPoint x="450" y="767" as="sourcePoint" />
            <mxPoint x="550" y="667" as="targetPoint" />
          </mxGeometry>
        </mxCell>
        <mxCell id="Pe_4OaXlOV5l_LclM_bV-62" value="requests" style="swimlane;fontStyle=0;childLayout=stackLayout;horizontal=1;startSize=26;horizontalStack=0;resizeParent=1;resizeParentMax=0;resizeLast=0;collapsible=1;marginBottom=0;align=center;fontSize=14;swimlaneFillColor=#ffffff;fillColor=#E6E6E6;" parent="1" vertex="1">
          <mxGeometry x="820" y="300" width="160" height="116" as="geometry" />
        </mxCell>
        <mxCell id="Pe_4OaXlOV5l_LclM_bV-63" value="id                                   INT" style="text;strokeColor=#d6b656;fillColor=#fff2cc;spacingLeft=4;spacingRight=4;overflow=hidden;rotatable=0;points=[[0,0.5],[1,0.5]];portConstraint=eastwest;fontSize=12;" parent="Pe_4OaXlOV5l_LclM_bV-62" vertex="1">
          <mxGeometry y="26" width="160" height="30" as="geometry" />
        </mxCell>
        <mxCell id="Pe_4OaXlOV5l_LclM_bV-64" value="user_id                          INT" style="text;strokeColor=none;fillColor=none;spacingLeft=4;spacingRight=4;overflow=hidden;rotatable=0;points=[[0,0.5],[1,0.5]];portConstraint=eastwest;fontSize=12;" parent="Pe_4OaXlOV5l_LclM_bV-62" vertex="1">
          <mxGeometry y="56" width="160" height="30" as="geometry" />
        </mxCell>
        <mxCell id="Pe_4OaXlOV5l_LclM_bV-65" value="created_at       TIMESTAMP" style="text;strokeColor=none;fillColor=none;spacingLeft=4;spacingRight=4;overflow=hidden;rotatable=0;points=[[0,0.5],[1,0.5]];portConstraint=eastwest;fontSize=12;" parent="Pe_4OaXlOV5l_LclM_bV-62" vertex="1">
          <mxGeometry y="86" width="160" height="30" as="geometry" />
        </mxCell>
        <mxCell id="Pe_4OaXlOV5l_LclM_bV-66" value="" style="edgeStyle=orthogonalEdgeStyle;fontSize=12;html=1;endArrow=ERmandOne;startArrow=ERmandOne;exitX=1;exitY=0.5;exitDx=0;exitDy=0;entryX=0;entryY=0.5;entryDx=0;entryDy=0;" parent="1" source="Pe_4OaXlOV5l_LclM_bV-2" target="Pe_4OaXlOV5l_LclM_bV-64" edge="1">
          <mxGeometry width="100" height="100" relative="1" as="geometry">
            <mxPoint x="770" y="307" as="sourcePoint" />
            <mxPoint x="820" y="287" as="targetPoint" />
          </mxGeometry>
        </mxCell>
      </root>
    </mxGraphModel>
  </diagram>
</mxfile>
